<?xml version="1.0" encoding="UTF-8" standalone="no"?>
<!-- Created with Inkscape (http://www.inkscape.org/) -->

<svg
   width="30.20735mm"
   height="11.931665mm"
   viewBox="0 0 30.20735 11.931665"
   version="1.1"
   id="svg5"
   xml:space="preserve"
   inkscape:version="1.2.1 (9c6d41e410, 2022-07-14)"
   sodipodi:docname="cloud.svg"
   xmlns:inkscape="http://www.inkscape.org/namespaces/inkscape"
   xmlns:sodipodi="http://sodipodi.sourceforge.net/DTD/sodipodi-0.dtd"
   xmlns="http://www.w3.org/2000/svg"
   xmlns:svg="http://www.w3.org/2000/svg"><sodipodi:namedview
     id="namedview7"
     pagecolor="#ffffff"
     bordercolor="#111111"
     borderopacity="1"
     inkscape:showpageshadow="0"
     inkscape:pageopacity="0"
     inkscape:pagecheckerboard="1"
     inkscape:deskcolor="#d1d1d1"
     inkscape:document-units="mm"
     showgrid="false"
     inkscape:zoom="6.0876733"
     inkscape:cx="48.622846"
     inkscape:cy="35.645803"
     inkscape:window-width="1366"
     inkscape:window-height="705"
     inkscape:window-x="-8"
     inkscape:window-y="-8"
     inkscape:window-maximized="1"
     inkscape:current-layer="layer1" /><defs
     id="defs2" /><g
     inkscape:label="Layer 1"
     inkscape:groupmode="layer"
     id="layer1"
     transform="translate(-66.364559,-170.19776)"><path
       style="fill:#ffffff;fill-opacity:1;stroke:#000000;stroke-width:0.264583px;stroke-linecap:butt;stroke-linejoin:miter;stroke-opacity:0"
       d="m 66.504861,181.99713 h 29.933337 c 0,0 0.184393,-3.62642 -3.872281,-2.9503 -4.056673,0.67611 -4.056673,0.67611 -4.056673,0.67611 l 3.810815,-0.61465 c 0,0 -0.860507,-3.68789 -4.425461,-2.15127 -3.564956,1.53662 0,-0.0615 0,-0.0615 0,0 -1.167831,-4.54839 -5.408901,-2.2742 -4.241067,2.2742 -4.241067,2.2742 -4.241067,2.2742 l 4.486929,-2.39708 c 0,0 -0.799042,-4.05668 -3.564956,-3.62642 -2.765914,0.43025 -4.056674,0.98343 -4.486927,3.68788 -0.430253,2.70445 -0.06146,0.30732 -0.06146,0.30732 0,0 -5.163039,-2.82737 -5.593293,3.93375 -0.430253,6.76112 0.06146,0.43025 0.06146,0.43025 0,0 -2.39713,-0.3688 -2.581522,2.76591 z"
       id="path456" /><ellipse
       style="fill:#ffffff;fill-opacity:1;fill-rule:evenodd;stroke-width:0.299216"
       id="path1012"
       cx="72.64698"
       cy="177.89055"
       rx="4.2375593"
       ry="3.9985173" /><ellipse
       style="fill:#ffffff;fill-opacity:1;fill-rule:evenodd;stroke-width:0.299216"
       id="ellipse1221"
       cx="78.601295"
       cy="174.19627"
       rx="4.2375593"
       ry="3.9985173" /><ellipse
       style="fill:#ffffff;fill-opacity:1;fill-rule:evenodd;stroke-width:0.299216"
       id="ellipse1223"
       cx="83.947136"
       cy="176.76053"
       rx="4.2375593"
       ry="3.9985173" /><ellipse
       style="fill:#ffffff;fill-opacity:1;fill-rule:evenodd;stroke-width:0.220947"
       id="ellipse1225"
       cx="89.314705"
       cy="178.97711"
       rx="3.1727369"
       ry="2.9119637" /></g></svg>
