<?xml version="1.0" encoding="UTF-8" standalone="no"?>
<!-- Created with Inkscape (http://www.inkscape.org/) -->

<svg
   width="69.582855mm"
   height="69.582855mm"
   viewBox="0 0 69.582855 69.582855"
   version="1.1"
   id="svg5"
   xml:space="preserve"
   inkscape:version="1.2.1 (9c6d41e410, 2022-07-14)"
   sodipodi:docname="computer-code.svg"
   xmlns:inkscape="http://www.inkscape.org/namespaces/inkscape"
   xmlns:sodipodi="http://sodipodi.sourceforge.net/DTD/sodipodi-0.dtd"
   xmlns="http://www.w3.org/2000/svg"
   xmlns:svg="http://www.w3.org/2000/svg"><sodipodi:namedview
     id="namedview7"
     pagecolor="#ffffff"
     bordercolor="#111111"
     borderopacity="1"
     inkscape:showpageshadow="0"
     inkscape:pageopacity="0"
     inkscape:pagecheckerboard="1"
     inkscape:deskcolor="#d1d1d1"
     inkscape:document-units="mm"
     showgrid="false"
     inkscape:zoom="1.2432572"
     inkscape:cx="-15.684606"
     inkscape:cy="157.6504"
     inkscape:window-width="1366"
     inkscape:window-height="705"
     inkscape:window-x="-8"
     inkscape:window-y="-8"
     inkscape:window-maximized="1"
     inkscape:current-layer="layer1" /><defs
     id="defs2" /><g
     inkscape:label="Layer 1"
     inkscape:groupmode="layer"
     id="layer1"
     transform="translate(-72.41143,-106.92)"><circle
       style="fill:#04509d;fill-opacity:1;fill-rule:evenodd;stroke-width:0.264583"
       id="path234"
       cx="107.20286"
       cy="141.71143"
       r="34.791428" /><g
       id="g1283"
       transform="matrix(0.12000307,0,0,0.12000307,76.482072,110.99064)"><rect
         x="160"
         y="357.41599"
         style="fill:#333333"
         width="192"
         height="108.336"
         id="rect1206" /><polygon
         points="160,376.152 274.24,376.152 160,434.056 "
         id="polygon1208" /><path
         style="fill:#999999"
         d="M 377.456,487.848 H 134.544 c -9.424,0 -17.12,-7.712 -17.12,-17.12 v 0 c 0,-9.424 7.712,-17.12 17.12,-17.12 H 377.44 c 9.424,0 17.12,7.712 17.12,17.12 v 0 c 0.016,9.408 -7.696,17.12 -17.104,17.12 z"
         id="path1210" /><path
         style="fill:#d6d6d6"
         d="M 480,376.152 H 32 c -17.6,0 -32,-14.4 -32,-32 v -288 c 0,-17.6 14.4,-32 32,-32 h 448 c 17.6,0 32,14.4 32,32 v 288 c 0,17.6 -14.4,32 -32,32 z"
         id="path1212" /><rect
         x="21.968"
         y="46.088001"
         style="fill:#0ba4e0"
         width="468.16"
         height="308.12799"
         id="rect1214" /><g
         id="g1222">
	<path
   style="fill:#ffffff"
   d="m 119.664,196.28 91.824,-44.56 v 17.424 l -72.832,33.904 v 0.384 l 72.832,34.096 v 17.248 l -91.824,-44.544 z"
   id="path1216" />
	<path
   style="fill:#ffffff"
   d="m 224.928,262.536 47.28,-140.448 h 16.656 l -47.28,140.448 z"
   id="path1218" />
	<path
   style="fill:#ffffff"
   d="m 392.336,210.616 -91.824,44.176 v -17.248 l 74.016,-34.096 v -0.384 L 300.512,168.968 V 151.72 l 91.824,44.176 z"
   id="path1220" />
</g><g
         id="g1224">
</g><g
         id="g1226">
</g><g
         id="g1228">
</g><g
         id="g1230">
</g><g
         id="g1232">
</g><g
         id="g1234">
</g><g
         id="g1236">
</g><g
         id="g1238">
</g><g
         id="g1240">
</g><g
         id="g1242">
</g><g
         id="g1244">
</g><g
         id="g1246">
</g><g
         id="g1248">
</g><g
         id="g1250">
</g><g
         id="g1252">
</g></g></g></svg>
