<?xml version="1.0" encoding="UTF-8" standalone="no"?>
<!-- Created with Inkscape (http://www.inkscape.org/) -->

<svg
   width="69.705368mm"
   height="69.705368mm"
   viewBox="0 0 69.705368 69.705368"
   version="1.1"
   id="svg5"
   xml:space="preserve"
   inkscape:version="1.2.1 (9c6d41e410, 2022-07-14)"
   sodipodi:docname="designlogo.svg"
   xmlns:inkscape="http://www.inkscape.org/namespaces/inkscape"
   xmlns:sodipodi="http://sodipodi.sourceforge.net/DTD/sodipodi-0.dtd"
   xmlns="http://www.w3.org/2000/svg"
   xmlns:svg="http://www.w3.org/2000/svg"><sodipodi:namedview
     id="namedview7"
     pagecolor="#ffffff"
     bordercolor="#111111"
     borderopacity="1"
     inkscape:showpageshadow="0"
     inkscape:pageopacity="0"
     inkscape:pagecheckerboard="1"
     inkscape:deskcolor="#d1d1d1"
     inkscape:document-units="mm"
     showgrid="false"
     inkscape:zoom="0.6216286"
     inkscape:cx="368.38717"
     inkscape:cy="154.43305"
     inkscape:window-width="1366"
     inkscape:window-height="705"
     inkscape:window-x="-8"
     inkscape:window-y="-8"
     inkscape:window-maximized="1"
     inkscape:current-layer="layer1" /><defs
     id="defs2" /><g
     inkscape:label="Layer 1"
     inkscape:groupmode="layer"
     id="layer1"
     transform="translate(-2.2315142,-106.96892)"><g
       id="g3025"
       transform="matrix(1.9549941,0,0,1.9549941,-87.093611,14.944649)"><circle
         style="fill:#ffebb4;stroke:#000000;stroke-width:0.569;stroke-dasharray:none;stroke-opacity:1"
         cx="63.518185"
         cy="64.898827"
         r="15.045122"
         id="circle766" /><path
         style="fill:#ffffff;stroke:#000000;stroke-width:0.418;stroke-dasharray:none;stroke-opacity:1"
         d="m 74.300895,64.898824 c 0,-5.960009 -4.822759,-10.782642 -10.782642,-10.782642 -5.959881,0 -10.782642,4.822759 -10.782642,10.782642 0,5.959881 4.822761,10.782642 10.782642,10.782642 5.959883,0 10.782642,-4.822633 10.782642,-10.782642 z"
         id="path768" /><path
         style="fill:#ffb14e;stroke:#000000;stroke-width:0.569;stroke-dasharray:none;stroke-opacity:1"
         d="m 75.21081,64.898824 2.923173,1.662475 2.923173,-1.662475 c 0,-4.84708 -1.961117,-9.231806 -5.134073,-12.404762 l -3.263891,0.850014 -0.87112,3.28493 c 2.115303,2.115304 3.422738,5.038477 3.422738,8.269818 z"
         id="path770" /><path
         style="fill:#ff755c;stroke:#000000;stroke-width:0.569;stroke-dasharray:none;stroke-opacity:1"
         d="m 71.786153,73.166792 0.891404,3.242511 3.242511,0.891404 c 3.427467,-3.427466 5.1412,-7.91464 5.1412,-12.401883 h -5.847649 c -6.8e-5,2.991495 -1.142557,5.982922 -3.427466,8.267968 z"
         id="path772" /><path
         style="fill:#ff4181;stroke:#000000;stroke-width:0.569;stroke-dasharray:none;stroke-opacity:1"
         d="m 63.518185,76.591449 -1.662475,2.923173 1.662475,2.923173 c 4.84708,0 9.231806,-1.961117 12.404761,-5.134073 l -4.134943,-4.135011 c -2.115167,2.115303 -5.03834,3.422738 -8.269818,3.422738 z"
         id="path774" /><path
         style="fill:#3b8bc0;stroke:#000000;stroke-width:0.569;stroke-dasharray:none;stroke-opacity:1"
         d="m 55.250354,73.166792 -3.242511,0.891404 -0.891404,3.242511 c 3.427466,3.427467 7.91464,5.1412 12.401883,5.1412 v -5.847649 c -2.991495,-6.8e-5 -5.98299,-1.142557 -8.267968,-3.427466 z"
         id="path776" /><path
         style="fill:#4eb9ff;stroke:#000000;stroke-width:0.569;stroke-dasharray:none;stroke-opacity:1"
         d="m 51.825697,64.898824 -2.923173,-1.662475 -2.923173,1.662475 c 0,4.84708 1.961117,9.231806 5.134072,12.404761 l 4.134944,-4.134943 c -2.115235,-2.115167 -3.42267,-5.03834 -3.42267,-8.269818 z"
         id="path778" /><path
         style="fill:#85c250;stroke:#000000;stroke-width:0.569;stroke-dasharray:none;stroke-opacity:1"
         d="M 55.250354,56.630993 54.35895,53.388482 51.116439,52.497078 c -3.427467,3.427466 -5.1412,7.914572 -5.1412,12.401746 h 5.847649 c 0,-2.991358 1.142557,-5.982853 3.427466,-8.267831 z"
         id="path780" /><path
         style="fill:#c9d467;stroke:#000000;stroke-width:0.569;stroke-dasharray:none;stroke-opacity:1"
         d="M 63.518185,53.206336 65.18066,50.283163 63.518185,47.35999 c -4.84708,0 -9.231806,1.961117 -12.404762,5.134072 l 4.134944,4.134944 c 2.115304,-2.115235 5.038477,-3.42267 8.269818,-3.42267 z"
         id="path782" /><path
         style="fill:#ffce47;stroke:#000000;stroke-width:0.569;stroke-dasharray:none;stroke-opacity:1"
         d="m 71.786153,56.630993 4.133915,-4.133915 c -3.427466,-3.427467 -7.91464,-5.1412 -12.401883,-5.1412 v 5.847649 c 2.991495,0 5.982922,1.142557 8.267968,3.427466 z"
         id="path784" /><g
         id="g786"
         style="stroke:#000000;stroke-width:8.30325;stroke-dasharray:none;stroke-opacity:1"
         transform="matrix(0.0685274,0,0,0.0685274,45.975239,47.355878)">
</g><g
         id="g788"
         style="stroke:#000000;stroke-width:8.30325;stroke-dasharray:none;stroke-opacity:1"
         transform="matrix(0.0685274,0,0,0.0685274,45.975239,47.355878)">
</g><g
         id="g790"
         style="stroke:#000000;stroke-width:8.30325;stroke-dasharray:none;stroke-opacity:1"
         transform="matrix(0.0685274,0,0,0.0685274,45.975239,47.355878)">
</g><g
         id="g792"
         style="stroke:#000000;stroke-width:8.30325;stroke-dasharray:none;stroke-opacity:1"
         transform="matrix(0.0685274,0,0,0.0685274,45.975239,47.355878)">
</g><g
         id="g794"
         style="stroke:#000000;stroke-width:8.30325;stroke-dasharray:none;stroke-opacity:1"
         transform="matrix(0.0685274,0,0,0.0685274,45.975239,47.355878)">
</g><g
         id="g796"
         style="stroke:#000000;stroke-width:8.30325;stroke-dasharray:none;stroke-opacity:1"
         transform="matrix(0.0685274,0,0,0.0685274,45.975239,47.355878)">
</g><g
         id="g798"
         style="stroke:#000000;stroke-width:8.30325;stroke-dasharray:none;stroke-opacity:1"
         transform="matrix(0.0685274,0,0,0.0685274,45.975239,47.355878)">
</g><g
         id="g800"
         style="stroke:#000000;stroke-width:8.30325;stroke-dasharray:none;stroke-opacity:1"
         transform="matrix(0.0685274,0,0,0.0685274,45.975239,47.355878)">
</g><g
         id="g802"
         style="stroke:#000000;stroke-width:8.30325;stroke-dasharray:none;stroke-opacity:1"
         transform="matrix(0.0685274,0,0,0.0685274,45.975239,47.355878)">
</g><g
         id="g804"
         style="stroke:#000000;stroke-width:8.30325;stroke-dasharray:none;stroke-opacity:1"
         transform="matrix(0.0685274,0,0,0.0685274,45.975239,47.355878)">
</g><g
         id="g806"
         style="stroke:#000000;stroke-width:8.30325;stroke-dasharray:none;stroke-opacity:1"
         transform="matrix(0.0685274,0,0,0.0685274,45.975239,47.355878)">
</g><g
         id="g808"
         style="stroke:#000000;stroke-width:8.30325;stroke-dasharray:none;stroke-opacity:1"
         transform="matrix(0.0685274,0,0,0.0685274,45.975239,47.355878)">
</g><g
         id="g810"
         style="stroke:#000000;stroke-width:8.30325;stroke-dasharray:none;stroke-opacity:1"
         transform="matrix(0.0685274,0,0,0.0685274,45.975239,47.355878)">
</g><g
         id="g812"
         style="stroke:#000000;stroke-width:8.30325;stroke-dasharray:none;stroke-opacity:1"
         transform="matrix(0.0685274,0,0,0.0685274,45.975239,47.355878)">
</g><g
         id="g814"
         style="stroke:#000000;stroke-width:8.30325;stroke-dasharray:none;stroke-opacity:1"
         transform="matrix(0.0685274,0,0,0.0685274,45.975239,47.355878)">
</g><rect
         x="-5.3889737"
         y="-92.144516"
         transform="rotate(135)"
         style="fill:#ffffff;stroke-width:0.0289487"
         width="0.78832978"
         height="2.6803558"
         id="rect2858" /><path
         style="fill:#f2484b;stroke-width:0.0289489"
         d="m 70.248898,59.059835 -0.891916,-0.891917 c -0.133281,-0.133251 -0.311462,-0.206666 -0.501714,-0.206666 -0.190282,0 -0.368433,0.07341 -0.501714,0.206666 l -0.947672,0.947673 1.895344,1.895373 0.947672,-0.947672 c 0.276636,-0.276665 0.276636,-0.726821 0,-1.003457 z"
         id="path2860" /><polygon
         style="fill:#f2ebd9"
         points="64.656,471.726 124.672,447.013 64.976,387.318 40.264,447.334 "
         id="polygon2862"
         transform="matrix(0.02894893,0,0,0.02894893,56.107317,57.487966)" /><path
         style="fill:#ff9d49;stroke-width:0.0289489"
         d="m 67.294399,61.456864 -1.170636,1.170637 c -0.04617,0.04617 -0.106706,0.06927 -0.167238,0.06927 -0.0605,0 -0.121065,-0.02307 -0.167238,-0.06927 l -0.334476,0.334476 c 0.09238,0.09238 0.09238,0.242129 0,0.334447 l -6.100727,6.100784 0.780434,0.780435 7.940316,-7.940344 z"
         id="path2864" /><path
         style="fill:#ffcc75;stroke-width:0.0289489"
         d="m 65.789287,62.293054 1.170636,-1.170637 -0.780434,-0.780434 -7.940344,7.940344 0.780434,0.780434 6.100727,-6.100726 c 0.09238,-0.09238 0.242129,-0.09238 0.334447,0 l 0.334476,-0.334476 c -0.09229,-0.09238 -0.09229,-0.242129 5.8e-5,-0.334505 z"
         id="path2866" /><polygon
         style="fill:#185f8d"
         points="33.525,463.701 23.19,488.799 48.288,478.465 "
         id="polygon2868"
         transform="matrix(0.02894893,0,0,0.02894893,56.107317,57.487966)" /><path
         style="fill:#000000;fill-opacity:1;stroke-width:0.0289489"
         d="m 70.583374,58.725388 -0.891916,-0.891917 c -0.222618,-0.222617 -0.519576,-0.345216 -0.83619,-0.345216 -0.316615,0 -0.613573,0.122599 -0.83619,0.345216 L 57.737489,68.115089 c -0.0056,0.0056 -0.01086,0.01141 -0.01583,0.01751 -0.0041,0.005 -0.0077,0.01013 -0.01135,0.01531 -7.82e-4,0.0011 -0.0017,0.0022 -0.0025,0.0033 -0.0092,0.01372 -0.01673,0.0282 -0.0227,0.04313 l -1.559999,3.788576 c -0.03636,0.08826 -0.01604,0.18976 0.05147,0.257298 0.04525,0.04525 0.105721,0.06928 0.167296,0.06928 0.03031,0 0.06088,-0.0058 0.09,-0.0178 l 3.788604,-1.56 c 0.0079,-0.0032 0.0156,-0.0067 0.02319,-0.0108 0.007,-0.0038 0.01355,-0.0077 0.01986,-0.0119 0.0014,-9.26e-4 0.0027,-0.002 0.004,-0.003 0.005,-0.0035 0.0099,-0.0069 0.01462,-0.01085 0.0061,-0.005 0.01196,-0.01025 0.01751,-0.01584 L 70.583374,60.397739 c 0.46107,-0.461099 0.46107,-1.21131 0,-1.672351 z m -12.604335,12.418541 -0.706122,-0.706122 0.715386,-1.737399 1.728106,1.728106 z m 1.375045,-1.746721 6.100727,-6.100726 c 0.09238,-0.09238 0.09238,-0.242129 0,-0.334447 -0.09238,-0.09238 -0.242129,-0.09238 -0.334447,0 l -6.100756,6.100726 -0.780434,-0.780434 7.940315,-7.940344 0.780434,0.780434 -1.170636,1.170637 c -0.09238,0.09238 -0.09238,0.242129 0,0.334447 0.04617,0.04617 0.106705,0.06927 0.167238,0.06927 0.0605,0 0.121064,-0.02307 0.167238,-0.06927 l 1.170636,-1.170637 0.780435,0.780435 -7.940316,7.940344 z m 7.159852,-9.389672 0.55747,-0.557469 1.895344,1.895344 -0.557469,0.557469 z m -9.436106,10.904078 0.427373,0.427373 -0.72656,0.299158 z m 12.223396,-9.900679 -1.895344,-1.895344 0.947672,-0.947673 c 0.133252,-0.133251 0.311432,-0.206666 0.501714,-0.206666 0.190252,0 0.368433,0.07341 0.501714,0.206666 l 0.891916,0.891917 c 0.276607,0.276636 0.276607,0.726763 0,1.003428 z"
         id="path2870" /><g
         id="g2872"
         transform="matrix(0.02894893,0,0,0.02894893,56.107317,57.487966)">
</g><g
         id="g2874"
         transform="matrix(0.02894893,0,0,0.02894893,56.107317,57.487966)">
</g><g
         id="g2876"
         transform="matrix(0.02894893,0,0,0.02894893,56.107317,57.487966)">
</g><g
         id="g2878"
         transform="matrix(0.02894893,0,0,0.02894893,56.107317,57.487966)">
</g><g
         id="g2880"
         transform="matrix(0.02894893,0,0,0.02894893,56.107317,57.487966)">
</g><g
         id="g2882"
         transform="matrix(0.02894893,0,0,0.02894893,56.107317,57.487966)">
</g><g
         id="g2884"
         transform="matrix(0.02894893,0,0,0.02894893,56.107317,57.487966)">
</g><g
         id="g2886"
         transform="matrix(0.02894893,0,0,0.02894893,56.107317,57.487966)">
</g><g
         id="g2888"
         transform="matrix(0.02894893,0,0,0.02894893,56.107317,57.487966)">
</g><g
         id="g2890"
         transform="matrix(0.02894893,0,0,0.02894893,56.107317,57.487966)">
</g><g
         id="g2892"
         transform="matrix(0.02894893,0,0,0.02894893,56.107317,57.487966)">
</g><g
         id="g2894"
         transform="matrix(0.02894893,0,0,0.02894893,56.107317,57.487966)">
</g><g
         id="g2896"
         transform="matrix(0.02894893,0,0,0.02894893,56.107317,57.487966)">
</g><g
         id="g2898"
         transform="matrix(0.02894893,0,0,0.02894893,56.107317,57.487966)">
</g><g
         id="g2900"
         transform="matrix(0.02894893,0,0,0.02894893,56.107317,57.487966)">
</g></g></g></svg>
