<?xml version="1.0" encoding="UTF-8" standalone="no"?>
<!-- Created with Inkscape (http://www.inkscape.org/) -->

<svg
   width="23.033316mm"
   height="23.033316mm"
   viewBox="0 0 23.033316 23.033316"
   version="1.1"
   id="svg1769"
   xml:space="preserve"
   inkscape:version="1.2.1 (9c6d41e410, 2022-07-14)"
   sodipodi:docname="guitar.svg"
   xmlns:inkscape="http://www.inkscape.org/namespaces/inkscape"
   xmlns:sodipodi="http://sodipodi.sourceforge.net/DTD/sodipodi-0.dtd"
   xmlns="http://www.w3.org/2000/svg"
   xmlns:svg="http://www.w3.org/2000/svg"><sodipodi:namedview
     id="namedview1771"
     pagecolor="#ffffff"
     bordercolor="#111111"
     borderopacity="1"
     inkscape:showpageshadow="0"
     inkscape:pageopacity="0"
     inkscape:pagecheckerboard="1"
     inkscape:deskcolor="#d1d1d1"
     inkscape:document-units="mm"
     showgrid="false"
     inkscape:zoom="3.4895434"
     inkscape:cx="54.161814"
     inkscape:cy="28.083904"
     inkscape:window-width="1366"
     inkscape:window-height="705"
     inkscape:window-x="-8"
     inkscape:window-y="-8"
     inkscape:window-maximized="1"
     inkscape:current-layer="layer1" /><defs
     id="defs1766"><style
       id="style2697">.cls-1{fill:#4bc190;}.cls-13,.cls-2{fill:#356cb6;}.cls-2{opacity:0.3;}.cls-3{fill:#393c54;}.cls-4{fill:#fba875;}.cls-5{fill:#fff;}.cls-12,.cls-6,.cls-8,.cls-9{fill:none;stroke-linecap:round;}.cls-6,.cls-9{stroke:#fba875;}.cls-12,.cls-6,.cls-9{stroke-miterlimit:10;}.cls-6{stroke-width:20px;}.cls-7{fill:#ffbb94;}.cls-8{stroke:#515570;stroke-linejoin:round;stroke-width:2px;opacity:0.4;}.cls-9{stroke-width:4px;}.cls-10{fill:#f85565;}.cls-11{fill:#515570;}.cls-12{stroke:#fff;stroke-width:3.28px;}.cls-12,.cls-13{opacity:0.1;}</style><style
       id="style2697-2">.cls-1{fill:#4bc190;}.cls-13,.cls-2{fill:#356cb6;}.cls-2{opacity:0.3;}.cls-3{fill:#393c54;}.cls-4{fill:#fba875;}.cls-5{fill:#fff;}.cls-12,.cls-6,.cls-8,.cls-9{fill:none;stroke-linecap:round;}.cls-6,.cls-9{stroke:#fba875;}.cls-12,.cls-6,.cls-9{stroke-miterlimit:10;}.cls-6{stroke-width:20px;}.cls-7{fill:#ffbb94;}.cls-8{stroke:#515570;stroke-linejoin:round;stroke-width:2px;opacity:0.4;}.cls-9{stroke-width:4px;}.cls-10{fill:#f85565;}.cls-11{fill:#515570;}.cls-12{stroke:#fff;stroke-width:3.28px;}.cls-12,.cls-13{opacity:0.1;}</style></defs><g
     inkscape:label="Layer 1"
     inkscape:groupmode="layer"
     id="layer1"
     transform="translate(-83.066968,-164.86683)"><circle
       style="fill:#4bc190;fill-opacity:1;fill-rule:evenodd;stroke-width:0.264583"
       id="path2730"
       cx="94.583626"
       cy="176.38348"
       r="11.516658" /><path
       id="circle2923"
       style="fill:#2d8460;fill-opacity:1;fill-rule:evenodd;stroke-width:0.264583"
       transform="rotate(-67.902758)"
       d="m -116.38597,153.98209 -0.0289,0.0263 c 0.0101,0.004 0.0195,0.009 0.0281,0.0143 a 11.516658,11.516658 45 0 0 8.5e-4,-0.0405 z m -2.37605,2.15098 -4.8e-4,1.9e-4 -0.097,0.0879 c 0.0163,0.007 0.0327,0.0133 0.0495,0.0189 0.0318,0.0134 0.0639,0.0266 0.0959,0.0397 -0.0201,-0.0444 -0.036,-0.0931 -0.0479,-0.14676 z m 1.11277,3.08423 c -0.0527,7.9e-4 -0.11074,-0.006 -0.17467,-0.0222 -0.13239,-0.0328 -0.23191,-0.14426 -0.34773,-0.21632 -0.15982,-0.15602 -0.32129,-0.3102 -0.47944,-0.46793 -0.0203,-0.0203 -0.0404,-0.0409 -0.0606,-0.0613 -0.13404,-0.0459 -0.26319,-0.0983 -0.19121,-0.19621 -0.12496,-0.1291 -0.25009,-0.25785 -0.37949,-0.38247 -0.18016,-0.17348 -0.36612,-0.34152 -0.55402,-0.50737 -0.0783,-0.0128 -0.15603,-0.0282 -0.23304,-0.0465 l -8.97551,8.12433 a 11.516658,11.516658 45 0 0 8.87196,-2.9216 11.516658,11.516658 45 0 0 2.52373,-3.30241 z" /><path
       style="fill:#2d8460;fill-opacity:1;stroke:#000000;stroke-width:0.264583px;stroke-linecap:butt;stroke-linejoin:miter;stroke-opacity:0"
       d="m 86.579579,180.86927 4.420934,6.47225 6.012471,-1.55617 7.356436,-7.32107 -3.25381,-7.74548 -2.687926,0.91956 -9.584586,9.44311 z"
       id="path3142" /><g
       id="g2047"
       transform="matrix(0.31973916,0,0,0.31973916,85.264416,164.7102)"><path
         d="m 29,31.4 0.9,0.9 0.2,0.2 c 0,0 0,0.1 -0.1,0.1 -0.7,1 -1.7,2.6 -1.5,4.6 0.2,2 0.7,3.4 1.6,4.4 0.7,0.7 1.5,1 2.2,1.1 -0.1,0 -0.2,0.1 -0.3,0.1 -1.8,0.7 -4.2,1.7 -5.1,4.5 -0.3,1 -0.5,2.2 -0.7,3.4 -0.4,2.4 -0.9,5.1 -2.3,6.5 -2,2 -4.4,2.9 -7.1,2.5 C 14.2,59.3 11.3,57.8 8.9,55.3 6.4,52.8 4.9,50 4.5,47.4 4.1,44.7 5,42.3 7,40.3 c 1.4,-1.4 3.4,-2.1 6.6,-2.3 5.9,-0.4 7.3,-3.9 8.2,-6.1 0.7,-1.8 0.9,-2.4 2.7,-2.5 1.7,-0.3 3,0.5 4.5,2 m 1.5,-1.6 C 28.9,28.2 27,26.7 24.1,27 c -6.7,0.5 -2.3,8.1 -10.8,8.7 -3.1,0.2 -5.9,0.9 -8,3 -5.4,5.3 -3.7,12.6 1.9,18.1 5.6,5.6 12.9,7.3 18.2,1.9 C 28.1,56 28.1,51 29,47.9 30.2,44 36.5,45.3 36.2,41 c 0,-0.4 -0.1,-0.7 -0.3,-0.8 -0.8,-0.8 -3,1.1 -4.3,-0.2 -0.5,-0.5 -0.8,-1.4 -1,-3 -0.2,-2.4 2.8,-4.2 1.7,-5.3 -0.6,-0.6 -1.2,-1.2 -1.8,-1.9 z"
         fill="#e27c17"
         id="path1954" /><path
         d="m 26.1,50.7 c 0.2,-1.2 0.4,-2.3 0.7,-3.4 0.9,-2.8 3.3,-3.8 5.1,-4.5 0.1,0 0.2,-0.1 0.3,-0.1 -0.7,-0.1 -1.5,-0.4 -2.2,-1.1 -0.9,-0.9 -1.4,-2.3 -1.6,-4.4 -0.2,-2 0.9,-3.5 1.5,-4.6 0,0 0,-0.1 0.1,-0.1 l -0.2,-0.2 -0.9,-0.9 c -1.5,-1.5 -2.7,-2.3 -4.7,-2.2 -1.7,0.1 -2,0.7 -2.7,2.5 -0.9,2.3 -2.2,5.7 -8.2,6.1 -3.2,0.2 -5.2,0.9 -6.6,2.3 -2,2 -2.9,4.4 -2.5,7.1 0.4,2.6 1.9,5.5 4.4,7.9 2.5,2.5 5.3,4 7.9,4.4 2.7,0.4 5.1,-0.5 7.1,-2.5 1.6,-1.3 2.1,-4 2.5,-6.3"
         fill="#ff9d27"
         id="path1956" /><g
         fill="#3e4347"
         id="g1996"><path
           d="m 19.81,39.223 2.474,-2.476 4.951,4.949 -2.474,2.475 z"
           id="path1958" /><path
           d="m 15.022,44.03 2.476,-2.475 4.949,4.95 -2.476,2.475 z"
           id="path1960" /><path
           d="m 12.042,48.178 1.414,-1.414 3.889,3.89 -1.415,1.414 z"
           id="path1962" /><path
           d="m 28.8,39.7 -4.5,-4.5 25.5,-24.1 3.1,3.1 z"
           id="path1964" /><circle
           cx="22.6"
           cy="53.700001"
           r="2.3"
           id="circle1966" /><circle
           cx="17.1"
           cy="56.5"
           r="1.8"
           id="circle1968" /><path
           d="m 52.6,19.2 c -0.7,0.7 -1,1.3 -0.5,1.9 0.6,0.6 1.2,0.2 1.9,-0.5 0.7,-0.7 1,-1.3 0.5,-1.9 -0.5,-0.5 -1.2,-0.1 -1.9,0.5"
           id="path1970" /><path
           d="m 51.17,18.477 0.706,-0.707 1.556,1.556 -0.707,0.707 z"
           id="path1972" /><path
           d="m 56.1,15.8 c -0.7,0.7 -1,1.3 -0.5,1.9 0.6,0.6 1.2,0.2 1.9,-0.5 0.7,-0.7 1,-1.3 0.5,-1.9 -0.6,-0.5 -1.3,-0.1 -1.9,0.5"
           id="path1974" /><path
           d="m 54.68,15.024 0.708,-0.707 1.555,1.555 -0.707,0.707 z"
           id="path1976" /><path
           d="m 59.5,12.4 c -0.7,0.7 -1,1.3 -0.5,1.9 0.6,0.6 1.2,0.2 1.9,-0.5 0.7,-0.7 1,-1.3 0.5,-1.9 -0.6,-0.6 -1.2,-0.2 -1.9,0.5"
           id="path1978" /><path
           d="m 58.05,11.57 0.707,-0.707 1.556,1.556 -0.708,0.707 z"
           id="path1980" /><path
           d="m 44.8,11.4 c -0.7,0.7 -1.3,1 -1.9,0.5 -0.6,-0.6 -0.2,-1.2 0.5,-1.9 0.7,-0.7 1.3,-1 1.9,-0.5 0.5,0.5 0.1,1.2 -0.5,1.9"
           id="path1982" /><path
           d="m 43.969,11.275 0.708,-0.706 1.554,1.557 -0.708,0.706 z"
           id="path1984" /><path
           d="m 48.2,7.9 c -0.7,0.7 -1.3,1 -1.9,0.5 -0.6,-0.6 -0.2,-1.2 0.5,-1.9 0.7,-0.7 1.3,-1 1.9,-0.5 0.5,0.6 0.1,1.3 -0.5,1.9"
           id="path1986" /><path
           d="M 47.483,7.823 48.19,7.116 49.745,8.672 49.038,9.379 Z"
           id="path1988" /><path
           d="M 51.6,4.5 C 50.9,5.2 50.3,5.6 49.7,5 49.1,4.4 49.5,3.8 50.2,3.1 50.9,2.4 51.5,2 52.1,2.6 c 0.6,0.6 0.2,1.2 -0.5,1.9"
           id="path1990" /><path
           d="m 50.85,4.369 0.708,-0.707 1.555,1.555 -0.707,0.707 z"
           id="path1992" /><path
           d="M 54.8,15.9 C 49.4,21.3 47.9,22.7 44.6,19.4 41.3,16.1 42.7,14.6 48.1,9.2 55.3,2 55.2,-0.1 59.7,4.3 64.1,8.8 62,8.7 54.8,15.9"
           id="path1994" /></g><g
         fill="#8a959b"
         id="g2010"><circle
           cx="53.799999"
           cy="6.5999999"
           r="1.3"
           id="circle1998" /><circle
           cx="50.299999"
           cy="10.1"
           r="1.3"
           id="circle2000" /><circle
           cx="46.900002"
           cy="13.5"
           r="1.3"
           id="circle2002" /><circle
           cx="57.400002"
           cy="10.2"
           r="1.3"
           id="circle2004" /><path
           d="m 54.9,14.6 c -0.5,0.5 -1.3,0.5 -1.8,0 -0.5,-0.5 -0.5,-1.3 0,-1.8 0.5,-0.5 1.3,-0.5 1.8,0 0.5,0.5 0.5,1.3 0,1.8"
           id="path2006" /><circle
           cx="50.5"
           cy="17.1"
           r="1.3"
           id="circle2008" /></g></g><path
       style="fill:#2d8460;fill-opacity:1;fill-rule:evenodd;stroke-width:0.264583"
       id="circle2921"
       sodipodi:type="arc"
       sodipodi:cx="94.583626"
       sodipodi:cy="176.38348"
       sodipodi:rx="11.516658"
       sodipodi:ry="11.516658"
       sodipodi:start="0"
       sodipodi:end="1.8865681"
       sodipodi:open="true"
       sodipodi:arc-type="arc"
       d="m 106.10028,176.38348 a 11.516658,11.516658 0 0 1 -4.75485,9.32263 11.516658,11.516658 0 0 1 -10.338304,1.62461" /></g></svg>
