<?xml version="1.0" encoding="UTF-8" standalone="no"?>
<!-- Created with Inkscape (http://www.inkscape.org/) -->

<svg
   version="1.1"
   id="svg1049"
   width="906.11218"
   height="362.98608"
   viewBox="0 0 906.11219 362.98609"
   sodipodi:docname="mountain.svg"
   inkscape:version="1.2.1 (9c6d41e410, 2022-07-14)"
   xml:space="preserve"
   xmlns:inkscape="http://www.inkscape.org/namespaces/inkscape"
   xmlns:sodipodi="http://sodipodi.sourceforge.net/DTD/sodipodi-0.dtd"
   xmlns="http://www.w3.org/2000/svg"
   xmlns:svg="http://www.w3.org/2000/svg"><defs
     id="defs1053" /><sodipodi:namedview
     id="namedview1051"
     pagecolor="#ffffff"
     bordercolor="#111111"
     borderopacity="1"
     inkscape:showpageshadow="0"
     inkscape:pageopacity="0"
     inkscape:pagecheckerboard="1"
     inkscape:deskcolor="#d1d1d1"
     showgrid="false"
     inkscape:zoom="0.73709606"
     inkscape:cx="504.00486"
     inkscape:cy="316.10534"
     inkscape:window-width="1366"
     inkscape:window-height="705"
     inkscape:window-x="-8"
     inkscape:window-y="-8"
     inkscape:window-maximized="1"
     inkscape:current-layer="g1055" /><g
     inkscape:groupmode="layer"
     inkscape:label="Image"
     id="g1055"
     transform="translate(-2.33731,-385.32372)"><ellipse
       style="fill:#2babd3;fill-opacity:1;fill-rule:evenodd;stroke-width:0.998757"
       id="ellipse5814"
       cx="84.790611"
       cy="697.03571"
       rx="162.51979"
       ry="161.76839"
       transform="matrix(0.90814361,-0.4186588,0.57665168,0.81699011,0,0)" /><path
       id="ellipse5812"
       style="fill:#5bbfd5;fill-opacity:1;fill-rule:evenodd;stroke-width:0.98004"
       transform="matrix(0.66886226,-0.74338636,0.77263966,0.63484483,0,0)"
       d="M 80.287227,789.76352 A 150.63803,168.04794 0 0 0 -33.557596,731.7618 150.63803,168.04794 0 0 0 -184.19543,899.80902 a 150.63803,168.04794 0 0 0 20.21991,83.30953 c 0.58912,-0.0424 1.19659,0.31431 1.70827,0.60666 2.18554,1.24876 3.70611,3.04729 5.31002,4.88267 1.59527,0.42084 2.97595,1.24374 3.99841,3.30067 0.15749,0.31675 -0.15184,0.57509 -0.55138,0.80341 0.0215,0.0353 0.044,0.0694 0.0658,0.10478 0.92606,0.0359 1.87556,0.0929 1.98835,0.20242 1.48465,1.44246 1.67294,2.16552 1.23924,2.63558 0.0312,0.26526 -0.0519,0.60978 -0.27794,1.03436 0.37724,0.37705 0.39757,0.65148 0.21086,0.84377 0.27869,0.40207 0.56788,0.79569 0.8531,1.19277 0.13973,-10e-4 0.27971,-0.003 0.41945,-0.004 0.44013,-0.11656 0.87894,-0.15258 1.31344,-0.0526 0.0149,0.003 0.0317,0.011 0.0469,0.015 0.26738,-0.009 0.53431,-0.009 0.80172,-0.0242 0.87457,-0.0497 4.12766,-1.10131 2.16593,0.65033 0.35104,0.0386 0.67103,0.0773 1.05679,0.11146 0.50178,0.33424 1.39091,0.45739 1.79571,0.84437 0.13494,0.129 0.21571,0.2875 0.21055,0.4927 -0.0529,2.1051 -1.08913,3.4496 -2.45394,4.4702 0.27865,0.3585 0.48635,0.6095 0.87563,1.1177 0.76306,0.9959 1.52831,1.9907 2.28458,2.992 0.28994,-0.028 0.57963,-0.058 0.86905,-0.062 0.76635,-0.01 3.68846,0.1812 2.61506,2.2838 -0.0929,0.182 -0.27932,0.3458 -0.49972,0.5008 0.15223,0.1096 0.30164,0.2226 0.4529,0.3335 4.03123,-0.1369 10.00442,1.7501 8.88331,6.9841 -0.0205,0.095 -0.0568,0.1844 -0.0877,0.2756 0.187,0.1577 0.3448,0.3148 0.47795,0.4735 0.50594,0.2881 0.91833,0.6271 1.15297,1.1102 0.12876,-0.01 0.21234,0.01 0.12567,0.101 -0.0217,0.023 -0.0381,0.034 -0.0594,0.057 0.0871,0.2272 0.13607,0.486 0.14498,0.782 0.52728,0.2629 0.99546,0.5792 1.24345,1.0899 0.0437,0.09 0.0721,0.1861 0.0984,0.2814 0.0747,0.04 0.14355,0.081 0.21638,0.1211 0.19258,0.06 0.52363,0.08 0.40459,0.1907 -0.007,0.01 -0.0155,0.015 -0.0229,0.022 1.43356,0.832 2.5747,1.8113 4.17272,3.9662 0.0284,0.038 0.0619,0.078 0.091,0.1159 0.53773,0.3212 0.95022,0.5727 1.64465,0.9752 0.86255,0.8265 2.18078,1.3462 2.58768,2.4794 0.15199,0.4233 0.21205,0.7681 0.23226,1.078 0.0205,0.027 0.0474,0.051 0.067,0.079 0.23417,-0.054 0.37602,-0.066 0.18934,0.086 -0.0316,0.026 -0.0623,0.044 -0.0938,0.069 0.44332,0.7124 0.60641,1.5752 0.28875,2.6394 -0.0888,0.2974 -0.3233,0.4361 -0.62107,0.4972 -0.0116,0.1801 -0.0306,0.3442 -0.0552,0.4952 1.21839,0.3476 2.42827,0.7078 3.47013,1.3869 0.29902,0.1948 0.56504,0.4271 0.81488,0.6773 0.69576,0.2406 1.22934,0.4238 1.58902,0.5532 0.0833,-0.04 0.16495,-0.092 0.24888,-0.127 0.68788,0.4575 0.63838,0.4461 -0.24888,0.127 -0.26026,0.1239 -0.51941,0.2545 -0.77658,0.4043 0.52708,0.7004 1.00776,1.4535 1.57094,2.1133 -2.26409,0.2045 -1.2127,0.2321 -4.41386,-0.8429 -0.17457,0.2471 -0.40777,0.2062 -0.67396,0 -0.0173,0.01 -0.0297,0.01 -0.0472,0.015 -0.23619,0.07 -0.46995,0.072 -0.70169,0.034 a 150.63803,168.04794 0 0 0 82.006511,27.1498 A 150.63803,168.04794 0 0 0 117.08032,899.81121 150.63803,168.04794 0 0 0 80.287227,789.76352 Z M -143.44761,1002.606 c -0.17238,-0.1545 -0.45653,-0.3262 -0.57755,-0.4733 -1.29961,-0.1567 -2.18991,-0.3304 -3.08476,-0.3756 0.16182,0.1946 0.31971,0.3919 0.4852,0.5835 0.33505,0.3273 0.60037,0.5984 0.84965,0.8596 0.0437,-0.024 0.0693,-0.039 0.11405,-0.063 0.72658,-0.2606 1.6194,0.1854 2.28133,-0.2205 0.0752,-0.046 0.0871,-0.1018 0.0574,-0.1635 -0.0222,-0.046 -0.0679,-0.095 -0.12536,-0.1468 z m 12.04214,14.4671 c -0.4452,-0.4658 -1.04984,-0.8497 -1.7119,-1.1647 0.8077,0.7202 1.59621,1.4615 2.3559,2.2326 -0.0297,-0.1341 -0.0745,-0.2712 -0.15329,-0.4133 -0.12858,-0.2317 -0.2955,-0.4503 -0.49071,-0.6546 z m -23.28808,-27.11588 c -0.0112,-0.011 -0.0382,-0.012 -0.0801,-10e-4 -0.27471,0.0693 -0.53363,0.19313 -0.78787,0.33573 0.0451,0.0597 0.0905,0.12086 0.13588,0.18066 0.0583,0.029 0.10704,0.0676 0.16172,0.10015 0.28386,-0.22016 0.63169,-0.55496 0.57034,-0.61507 z m 2.88776,3.55686 c -0.008,0.0278 -0.009,0.0584 -0.0154,0.0866 0.009,-0.003 0.0183,-0.005 0.0271,-0.008 0.0248,-0.01 -0.005,-0.10397 -0.0117,-0.0783 z" /><ellipse
       style="fill:#48b8d0;fill-opacity:1;fill-rule:evenodd;stroke-width:0.931842"
       id="path5810"
       cx="-694.89655"
       cy="488.88684"
       rx="152.32535"
       ry="150.24332"
       transform="matrix(0.35323234,-0.93553563,0.991264,-0.13189273,0,0)" /><path
       id="rect12102"
       style="fill:#f5db47;fill-opacity:1;stroke:#000000;stroke-width:0.755906;stroke-opacity:0"
       d="M 29.474609,700.22461 V 747.5625 H 891.35742 v -40.46484 c -0.18342,-0.10305 -0.35937,-0.21783 -0.51953,-0.32813 -0.0543,-0.0374 -0.1034,-0.0765 -0.1543,-0.11523 -0.38841,0.41346 -0.94507,0.72689 -1.73632,0.89062 -0.6451,0.13348 -1.17783,-0.58732 -1.76758,-0.88086 -0.27484,-0.52106 -0.66367,-0.99626 -0.82617,-1.5625 -0.012,-0.0418 -0.0218,-0.0848 -0.0332,-0.12695 -0.65461,-0.0887 -1.3641,-0.62815 -1.83203,-1.74805 -0.33877,-0.81079 -0.7615,-1.89715 -0.98242,-3.00195 z" /><path
       style="fill:#158d1e;fill-opacity:1;stroke:#000000;stroke-width:1px;stroke-linecap:butt;stroke-linejoin:miter;stroke-opacity:0"
       d="m 40.1323,689.4524 187.28409,-170.81955 55.5678,62.77104 169.79052,-180.08085 180.08085,194.48732 83.35171,-76.14848 163.61628,176.99375 z"
       id="path1685" /><path
       style="fill:#0a4813;fill-opacity:1;stroke:#000000;stroke-width:1px;stroke-linecap:butt;stroke-linejoin:miter;stroke-opacity:0"
       d="m 40.132303,688.42336 114.222707,-87.46784 17.49357,43.2194 46.30651,-27.7839 67.9162,28.81294 103.93238,-85.40978 43.2194,68.94524 41.16134,-47.33554 68.94524,51.45167 17.49356,-54.53877 96.72915,67.91621 1.02903,-34.98714 97.75817,52.48071 1.02904,-49.39361 81.29364,37.04521 41.16134,45.27747 z"
       id="path3343" /><path
       style="fill:#ecf6fc;fill-opacity:1;stroke:#000000;stroke-width:1px;stroke-linecap:butt;stroke-linejoin:miter;stroke-opacity:0"
       d="m 182.13892,558.76515 5.14516,24.6968 20.58067,-8.23227 8.23227,17.49357 14.40647,-18.5226 20.58066,18.5226 -1.02903,-24.6968 18.5226,-2.05807 -42.19037,-47.33554 z"
       id="path3345" /><path
       style="fill:#ecf6fc;fill-opacity:1;stroke:#000000;stroke-width:1px;stroke-linecap:butt;stroke-linejoin:miter;stroke-opacity:0"
       d="m 396.17787,461.00697 21.6097,5.14517 17.49357,40.1323 18.5226,-27.7839 34.98714,32.92907 -3.08711,-33.9581 33.95811,-3.0871 -66.88717,-73.06138 z"
       id="path3347" /><path
       style="fill:#ecf6fc;fill-opacity:1;stroke:#000000;stroke-width:1px;stroke-linecap:butt;stroke-linejoin:miter;stroke-opacity:0"
       d="m 672.98786,558.76515 3.0871,21.6097 7.20323,-12.3484 17.49357,24.6968 15.4355,-22.63873 9.2613,17.49356 9.2613,-19.55163 36.01617,11.31937 -54.53877,-58.65491 z"
       id="path3349" /><path
       style="fill:#000000;fill-opacity:0.186529;stroke:#000000;stroke-width:1px;stroke-linecap:butt;stroke-linejoin:miter;stroke-opacity:0"
       d="M 40.132303,688.42336 225.35832,518.63284 257.25836,691.51046 Z"
       id="path5750" /><path
       style="fill:#000000;fill-opacity:0.150259;stroke:#000000;stroke-width:1px;stroke-linecap:butt;stroke-linejoin:miter;stroke-opacity:0"
       d="m 283.5263,581.51824 26.76142,109.21549 148.27268,2.16984 -5.78625,-292.20568 z"
       id="path5754" /><path
       style="fill:#000000;fill-opacity:0.212435;stroke:#000000;stroke-width:1px;stroke-linecap:butt;stroke-linejoin:miter;stroke-opacity:0"
       d="m 716.04857,520.03932 -19.52859,174.31081 183.71347,1.44657 z"
       id="path5756" /><g
       id="g10946"
       transform="rotate(3.741677,-2080.9482,-11771.032)"><path
         style="fill:#108410;fill-opacity:1;stroke:#000000;stroke-width:1.10206px;stroke-linecap:butt;stroke-linejoin:miter;stroke-opacity:0"
         d="m 945.40279,494.51329 c 12.94344,-41.42587 -26.39428,-40.41155 -26.39428,-40.41155 l 13.03307,16.88921 6.87176,-0.21289 -3.37485,4.55045 3.06031,7.06972 5.5389,-2.3281 -3.59722,5.62026 z"
         id="path10926" /><path
         style="fill:#0f800f;fill-opacity:1;stroke:#000000;stroke-width:1.10206px;stroke-linecap:butt;stroke-linejoin:miter;stroke-opacity:0"
         d="m 892.36756,491.97846 c -7.58993,-42.73205 31.30218,-36.74132 31.30218,-36.74132 l -15.06809,15.10162 -6.7894,-1.08192 2.77105,4.94141 -3.93147,6.62496 -5.19925,-3.01119 2.85607,6.03077 z"
         id="path10855" /><ellipse
         style="fill:#552200;fill-rule:evenodd;stroke-width:1.13436"
         id="path10932"
         cx="922.06689"
         cy="454.96155"
         rx="3.8712497"
         ry="3.1138506" /><path
         style="fill:#b9340e;fill-opacity:1;stroke:#000000;stroke-width:1px;stroke-linecap:butt;stroke-linejoin:miter;stroke-opacity:0"
         d="m 906.22274,520.57568 11.48329,-65.07196 8.61246,-2.87082 3.82776,69.85666 z"
         id="path7963" /><path
         style="fill:#9d2a0c;fill-opacity:1;stroke:#000000;stroke-width:1px;stroke-linecap:butt;stroke-linejoin:miter;stroke-opacity:0"
         d="m 916.7229,521.68297 4.55723,-67.39904 -3.59781,1.19927 -11.513,65.0005 z"
         id="path10242" /><path
         style="fill:#501616;stroke:#000000;stroke-width:1px;stroke-linecap:butt;stroke-linejoin:miter;stroke-opacity:0"
         d="m 926.86418,462.40395 -4.62661,2.82738 4.88364,0.64258 z"
         id="path10796" /><path
         style="fill:#501616;stroke:#000000;stroke-width:1.11772px;stroke-linecap:butt;stroke-linejoin:miter;stroke-opacity:0"
         d="m 927.67957,477.70945 -6.29276,4.28086 6.50669,0.60253 z"
         id="path10798"
         sodipodi:nodetypes="cccc" /><path
         style="fill:#501616;stroke:#000000;stroke-width:1.11772px;stroke-linecap:butt;stroke-linejoin:miter;stroke-opacity:0"
         d="m 928.79901,498.58953 -6.29276,4.28086 6.55536,0.84589 z"
         id="path10849"
         sodipodi:nodetypes="cccc" /><path
         style="fill:#00c400;fill-opacity:1;stroke:#000000;stroke-width:1px;stroke-linecap:butt;stroke-linejoin:miter;stroke-opacity:0"
         d="m 863.86196,468.50042 c 0,0 18.09983,-24.99414 42.06752,-19.40423 23.9677,5.58992 15.68089,5.76293 15.68089,5.76293 l -22.78203,5.38611 -2.87199,-4.6911 -1.86231,5.49145 z"
         id="path10851" /><path
         style="fill:#00b100;fill-opacity:1;stroke:#000000;stroke-width:0.698254px;stroke-linecap:butt;stroke-linejoin:miter;stroke-opacity:0"
         d="m 970.23085,467.87639 c 0,0 -11.29077,-15.57733 -32.8886,-15.13752 -21.59783,0.43981 -14.49218,1.43442 -14.49218,1.43442 l 18.69117,5.40842 3.2789,-2.24251 0.66008,3.19275 z"
         id="path10853" /><path
         style="fill:#00c900;fill-opacity:1;stroke:#000000;stroke-width:1.10206px;stroke-linecap:butt;stroke-linejoin:miter;stroke-opacity:0"
         d="m 880.25923,432.64078 c 40.00007,-16.84132 42.74798,22.41341 42.74798,22.41341 l -18.05692,-11.3602 -0.44449,-6.86067 -4.20726,3.79409 -7.32972,-2.37101 1.78837,-5.73596 -5.25096,4.11762 z"
         id="path10928" /><path
         style="fill:#00be00;fill-opacity:1;stroke:#000000;stroke-width:1.10206px;stroke-linecap:butt;stroke-linejoin:miter;stroke-opacity:0"
         d="m 964.55169,433.60267 c -40.00007,-16.84132 -42.74798,22.41341 -42.74798,22.41341 l 18.05692,-11.3602 0.44449,-6.86067 4.20726,3.79409 7.32972,-2.37101 -1.78837,-5.73596 5.25096,4.11762 z"
         id="path10930" /></g><g
       id="g10972"
       transform="matrix(-0.99786841,0.06525818,0.06525818,0.99786841,1388.2375,122.37082)"><path
         style="fill:#108410;fill-opacity:1;stroke:#000000;stroke-width:1.10206px;stroke-linecap:butt;stroke-linejoin:miter;stroke-opacity:0"
         d="m 945.40279,494.51329 c 12.94344,-41.42587 -26.39428,-40.41155 -26.39428,-40.41155 l 13.03307,16.88921 6.87176,-0.21289 -3.37485,4.55045 3.06031,7.06972 5.5389,-2.3281 -3.59722,5.62026 z"
         id="path10948" /><path
         style="fill:#0f800f;fill-opacity:1;stroke:#000000;stroke-width:1.10206px;stroke-linecap:butt;stroke-linejoin:miter;stroke-opacity:0"
         d="m 892.36756,491.97846 c -7.58993,-42.73205 31.30218,-36.74132 31.30218,-36.74132 l -15.06809,15.10162 -6.7894,-1.08192 2.77105,4.94141 -3.93147,6.62496 -5.19925,-3.01119 2.85607,6.03077 z"
         id="path10950" /><ellipse
         style="fill:#552200;fill-rule:evenodd;stroke-width:1.13436"
         id="ellipse10952"
         cx="922.06689"
         cy="454.96155"
         rx="3.8712497"
         ry="3.1138506" /><path
         style="fill:#b9340e;fill-opacity:1;stroke:#000000;stroke-width:1px;stroke-linecap:butt;stroke-linejoin:miter;stroke-opacity:0"
         d="m 906.22274,520.57568 11.48329,-65.07196 8.61246,-2.87082 3.82776,69.85666 z"
         id="path10954" /><path
         style="fill:#9d2a0c;fill-opacity:1;stroke:#000000;stroke-width:1px;stroke-linecap:butt;stroke-linejoin:miter;stroke-opacity:0"
         d="m 916.7229,521.68297 4.55723,-67.39904 -3.59781,1.19927 -11.513,65.0005 z"
         id="path10956" /><path
         style="fill:#501616;stroke:#000000;stroke-width:1px;stroke-linecap:butt;stroke-linejoin:miter;stroke-opacity:0"
         d="m 926.86418,462.40395 -4.62661,2.82738 4.88364,0.64258 z"
         id="path10958" /><path
         style="fill:#501616;stroke:#000000;stroke-width:1.11772px;stroke-linecap:butt;stroke-linejoin:miter;stroke-opacity:0"
         d="m 927.67957,477.70945 -6.29276,4.28086 6.50669,0.60253 z"
         id="path10960"
         sodipodi:nodetypes="cccc" /><path
         style="fill:#501616;stroke:#000000;stroke-width:1.11772px;stroke-linecap:butt;stroke-linejoin:miter;stroke-opacity:0"
         d="m 928.79901,498.58953 -6.29276,4.28086 6.55536,0.84589 z"
         id="path10962"
         sodipodi:nodetypes="cccc" /><path
         style="fill:#00c400;fill-opacity:1;stroke:#000000;stroke-width:1px;stroke-linecap:butt;stroke-linejoin:miter;stroke-opacity:0"
         d="m 863.86196,468.50042 c 0,0 18.09983,-24.99414 42.06752,-19.40423 23.9677,5.58992 15.68089,5.76293 15.68089,5.76293 l -22.78203,5.38611 -2.87199,-4.6911 -1.86231,5.49145 z"
         id="path10964" /><path
         style="fill:#00b100;fill-opacity:1;stroke:#000000;stroke-width:0.698254px;stroke-linecap:butt;stroke-linejoin:miter;stroke-opacity:0"
         d="m 970.23085,467.87639 c 0,0 -11.29077,-15.57733 -32.8886,-15.13752 -21.59783,0.43981 -14.49218,1.43442 -14.49218,1.43442 l 18.69117,5.40842 3.2789,-2.24251 0.66008,3.19275 z"
         id="path10966" /><path
         style="fill:#00c900;fill-opacity:1;stroke:#000000;stroke-width:1.10206px;stroke-linecap:butt;stroke-linejoin:miter;stroke-opacity:0"
         d="m 880.25923,432.64078 c 40.00007,-16.84132 42.74798,22.41341 42.74798,22.41341 l -18.05692,-11.3602 -0.44449,-6.86067 -4.20726,3.79409 -7.32972,-2.37101 1.78837,-5.73596 -5.25096,4.11762 z"
         id="path10968" /><path
         style="fill:#00be00;fill-opacity:1;stroke:#000000;stroke-width:1.10206px;stroke-linecap:butt;stroke-linejoin:miter;stroke-opacity:0"
         d="m 964.55169,433.60267 c -40.00007,-16.84132 -42.74798,22.41341 -42.74798,22.41341 l 18.05692,-11.3602 0.44449,-6.86067 4.20726,3.79409 7.32972,-2.37101 -1.78837,-5.73596 5.25096,4.11762 z"
         id="path10970" /></g><g
       id="g10998"
       transform="matrix(1.1591703,0.07504714,-0.07580693,1.1475522,-230.34484,36.424226)"><path
         style="fill:#108410;fill-opacity:1;stroke:#000000;stroke-width:1.10206px;stroke-linecap:butt;stroke-linejoin:miter;stroke-opacity:0"
         d="m 945.40279,494.51329 c 12.94344,-41.42587 -26.39428,-40.41155 -26.39428,-40.41155 l 13.03307,16.88921 6.87176,-0.21289 -3.37485,4.55045 3.06031,7.06972 5.5389,-2.3281 -3.59722,5.62026 z"
         id="path10974" /><path
         style="fill:#0f800f;fill-opacity:1;stroke:#000000;stroke-width:1.10206px;stroke-linecap:butt;stroke-linejoin:miter;stroke-opacity:0"
         d="m 892.36756,491.97846 c -7.58993,-42.73205 31.30218,-36.74132 31.30218,-36.74132 l -15.06809,15.10162 -6.7894,-1.08192 2.77105,4.94141 -3.93147,6.62496 -5.19925,-3.01119 2.85607,6.03077 z"
         id="path10976" /><ellipse
         style="fill:#552200;fill-rule:evenodd;stroke-width:1.13436"
         id="ellipse10978"
         cx="922.06689"
         cy="454.96155"
         rx="3.8712497"
         ry="3.1138506" /><path
         style="fill:#b9340e;fill-opacity:1;stroke:#000000;stroke-width:1px;stroke-linecap:butt;stroke-linejoin:miter;stroke-opacity:0"
         d="m 906.22274,520.57568 11.48329,-65.07196 8.61246,-2.87082 3.82776,69.85666 z"
         id="path10980" /><path
         style="fill:#9d2a0c;fill-opacity:1;stroke:#000000;stroke-width:1px;stroke-linecap:butt;stroke-linejoin:miter;stroke-opacity:0"
         d="m 916.7229,521.68297 4.55723,-67.39904 -3.59781,1.19927 -11.513,65.0005 z"
         id="path10982" /><path
         style="fill:#501616;stroke:#000000;stroke-width:1px;stroke-linecap:butt;stroke-linejoin:miter;stroke-opacity:0"
         d="m 926.86418,462.40395 -4.62661,2.82738 4.88364,0.64258 z"
         id="path10984" /><path
         style="fill:#501616;stroke:#000000;stroke-width:1.11772px;stroke-linecap:butt;stroke-linejoin:miter;stroke-opacity:0"
         d="m 927.67957,477.70945 -6.29276,4.28086 6.50669,0.60253 z"
         id="path10986"
         sodipodi:nodetypes="cccc" /><path
         style="fill:#501616;stroke:#000000;stroke-width:1.11772px;stroke-linecap:butt;stroke-linejoin:miter;stroke-opacity:0"
         d="m 928.79901,498.58953 -6.29276,4.28086 6.55536,0.84589 z"
         id="path10988"
         sodipodi:nodetypes="cccc" /><path
         style="fill:#00c400;fill-opacity:1;stroke:#000000;stroke-width:1px;stroke-linecap:butt;stroke-linejoin:miter;stroke-opacity:0"
         d="m 863.86196,468.50042 c 0,0 18.09983,-24.99414 42.06752,-19.40423 23.9677,5.58992 15.68089,5.76293 15.68089,5.76293 l -22.78203,5.38611 -2.87199,-4.6911 -1.86231,5.49145 z"
         id="path10990" /><path
         style="fill:#00b100;fill-opacity:1;stroke:#000000;stroke-width:0.698254px;stroke-linecap:butt;stroke-linejoin:miter;stroke-opacity:0"
         d="m 970.23085,467.87639 c 0,0 -11.29077,-15.57733 -32.8886,-15.13752 -21.59783,0.43981 -14.49218,1.43442 -14.49218,1.43442 l 18.69117,5.40842 3.2789,-2.24251 0.66008,3.19275 z"
         id="path10992" /><path
         style="fill:#00c900;fill-opacity:1;stroke:#000000;stroke-width:1.10206px;stroke-linecap:butt;stroke-linejoin:miter;stroke-opacity:0"
         d="m 880.25923,432.64078 c 40.00007,-16.84132 42.74798,22.41341 42.74798,22.41341 l -18.05692,-11.3602 -0.44449,-6.86067 -4.20726,3.79409 -7.32972,-2.37101 1.78837,-5.73596 -5.25096,4.11762 z"
         id="path10994" /><path
         style="fill:#00be00;fill-opacity:1;stroke:#000000;stroke-width:1.10206px;stroke-linecap:butt;stroke-linejoin:miter;stroke-opacity:0"
         d="m 964.55169,433.60267 c -40.00007,-16.84132 -42.74798,22.41341 -42.74798,22.41341 l 18.05692,-11.3602 0.44449,-6.86067 4.20726,3.79409 7.32972,-2.37101 -1.78837,-5.73596 5.25096,4.11762 z"
         id="path10996" /></g><path
       style="fill:#81b717;fill-opacity:1;stroke:#000000;stroke-width:1px;stroke-linecap:butt;stroke-linejoin:miter;stroke-opacity:0"
       d="m 41.938962,688.88628 838.002588,6.98982 v 20.19284 L 42.715609,704.41923 Z"
       id="path11002" /><ellipse
       style="fill:#81b717;fill-opacity:1;fill-rule:evenodd;stroke-width:1.15378"
       id="path11349"
       cx="98.328285"
       cy="844.30658"
       rx="2.4095054"
       ry="4.5459824"
       transform="matrix(0.8856471,-0.46435893,0.49131936,0.8709795,0,0)" /><ellipse
       style="fill:#81b717;fill-opacity:1;fill-rule:evenodd;stroke-width:1.15378"
       id="ellipse11351"
       cx="-603.67334"
       cy="624.63513"
       rx="2.4095054"
       ry="4.5459824"
       transform="matrix(-0.99293238,-0.11868142,-0.14909709,0.98882256,0,0)" /><ellipse
       style="fill:#81b717;fill-opacity:1;fill-rule:evenodd"
       id="path11353"
       cx="392.28351"
       cy="965.47534"
       rx="2.3915813"
       ry="6.0309439"
       transform="rotate(-26.394529)" /><ellipse
       style="fill:#81b717;fill-opacity:1;fill-rule:evenodd"
       id="ellipse11493"
       cx="-1010.5253"
       cy="270.90714"
       rx="2.3915813"
       ry="6.0309439"
       transform="matrix(-0.89575421,-0.44454965,-0.44454965,0.89575421,0,0)" /><ellipse
       style="fill:#81b717;fill-opacity:1;fill-rule:evenodd"
       id="path11495"
       cx="446.95959"
       cy="534.72015"
       rx="1.2477815"
       ry="5.1990895"
       transform="rotate(29.768562)" /><ellipse
       style="fill:#81b717;fill-opacity:1;fill-rule:evenodd"
       id="ellipse11566"
       cx="238.12427"
       cy="656.32538"
       rx="1.2477815"
       ry="5.1990895"
       transform="matrix(-0.86803801,0.49649775,0.49649775,0.86803801,0,0)" /><ellipse
       style="fill:#81b717;fill-opacity:1;fill-rule:evenodd"
       id="ellipse11568"
       cx="257.46524"
       cy="644.06488"
       rx="1.2477815"
       ry="5.1990895"
       transform="matrix(-0.86803801,0.49649775,0.49649775,0.86803801,0,0)" /><ellipse
       style="fill:#81b717;fill-opacity:1;fill-rule:evenodd"
       id="ellipse11570"
       cx="427.6713"
       cy="549.58588"
       rx="1.2477815"
       ry="5.1990895"
       transform="rotate(29.768562)" /><path
       style="fill:#f5db47;fill-opacity:1;stroke:#000000;stroke-width:1px;stroke-linecap:butt;stroke-linejoin:miter;stroke-opacity:0"
       d="m 29.088676,747.52408 c 0,0 -20.856032,2.74421 -25.7956184,-8.78149 -4.9395864,-11.5257 32.9305764,-44.45628 32.9305764,-44.45628 z"
       id="path12104" /><path
       style="fill:#81b717;fill-opacity:1;stroke:#000000;stroke-width:1px;stroke-linecap:butt;stroke-linejoin:miter;stroke-opacity:0"
       d="m 41.803612,688.87016 c 0,0 -16.899332,5.33663 -13.341578,17.78877 3.557754,12.45214 70.710365,4.00248 70.710365,4.00248 l 131.636911,-6.67079 85.83082,0.88944 z"
       id="path11572" /><path
       id="path12106"
       style="fill:#f5db47;fill-opacity:1;stroke:#000000;stroke-width:1px;stroke-linecap:butt;stroke-linejoin:miter;stroke-opacity:0"
       d="m 877.82227,697.20898 c -0.0223,0.0213 -0.0435,0.0436 -0.0664,0.0645 -0.0144,0.21492 -0.0295,0.40011 -0.0469,0.54883 0.17804,-0.0838 0.35654,-0.1709 0.53711,-0.22461 -0.14788,-0.13611 -0.28333,-0.25996 -0.42382,-0.38868 z m 1.05078,0.97071 c -0.32336,0.68231 -0.85295,1.21419 -1.50391,1.29101 -0.10094,0.39839 -0.19551,0.79895 -0.48828,1.0625 -0.37189,0.33478 -0.87931,0.54913 -1.38867,0.61524 l 6.21484,46.375 c 0,0 20.85536,2.74443 25.79492,-8.78125 2.89334,-6.75111 -8.86841,-20.80704 -19.12109,-31.31055 -0.3414,0.006 -0.65236,-0.0244 -0.89844,-0.10156 -0.37946,-0.11897 -0.83405,-0.24715 -1.03906,-0.58789 -0.30571,-0.50812 -0.33525,-1.13239 -0.44922,-1.72071 -2.68161,-2.67083 -5.16763,-5.03305 -7.12109,-6.84179 z" /><path
       style="fill:#81b717;fill-opacity:1;stroke:#000000;stroke-width:1px;stroke-linecap:butt;stroke-linejoin:miter;stroke-opacity:0"
       d="m 878.7653,696.43039 c 0,0 27.57259,11.5627 13.34157,29.79619 -14.23101,18.23349 -102.28543,-8.00494 -102.28543,-8.00494 0,0 12.89686,12.00742 0.88944,9.3391 -12.00742,-2.66832 -13.7863,-9.3391 -13.7863,-9.3391 0,0 4.44719,21.34652 -2.66832,11.11798 -7.1155,-10.22855 -6.67078,-15.12046 -6.67078,-15.12046 z"
       id="path11574" /><path
       style="fill:#81b717;fill-opacity:1;stroke:#000000;stroke-width:1px;stroke-linecap:butt;stroke-linejoin:miter;stroke-opacity:0"
       d="m 54.246104,712.43217 c 0,0 97.281346,2.53148 120.426356,-2.89313 23.145,-5.42461 92.21837,4.33969 92.21837,4.33969 0,0 29.65454,5.42461 51.35298,-0.72328 21.69844,-6.14789 38.33391,-7.23281 38.33391,-7.23281 l -21.3368,-7.59446 -275.208565,2.89313 z"
       id="path11607" /><path
       style="fill:#81b717;fill-opacity:1;stroke:#000000;stroke-width:1px;stroke-linecap:butt;stroke-linejoin:miter;stroke-opacity:0"
       d="m 336.68749,705.56099 c 0,0 -4.33969,12.65743 4.70133,7.59446 9.04101,-5.06297 7.23281,-8.31774 7.23281,-8.31774 0,0 -2.53149,9.04102 4.70133,9.40266 7.23281,0.36164 1.08492,-7.95609 1.08492,-7.95609 0,0 -2.53148,5.42461 6.50953,5.42461 9.04102,0 41.95032,1.44656 48.45986,-3.61641 6.50953,-5.06297 22.06008,-1.08492 22.06008,-1.08492 l -6.87117,-10.84922 z"
       id="path11609" /><path
       style="fill:#81b717;fill-opacity:1;stroke:#000000;stroke-width:1px;stroke-linecap:butt;stroke-linejoin:miter;stroke-opacity:0"
       d="m 398.88969,707.3692 c 0,0 34.35586,10.12594 54.2461,9.7643 19.89024,-0.36164 63.64876,-10.48758 63.64876,-10.48758 0,0 18.80532,12.65742 57.50087,9.7643 38.69556,-2.89313 60.03236,-12.29579 60.03236,-12.29579 0,0 55.33102,15.55055 69.79665,14.46563 14.46563,-1.08492 49.18314,-0.72328 63.64876,-6.14789 14.46563,-5.42461 -15.91219,-5.42461 -15.91219,-5.42461 L 532.69674,696.88162 Z"
       id="path11611" /><ellipse
       style="fill:#81b717;fill-opacity:1;fill-rule:evenodd"
       id="path11700"
       cx="-42.964088"
       cy="817.40558"
       rx="2.2139766"
       ry="6.0093651"
       transform="rotate(-32.753667)" /><ellipse
       style="fill:#81b717;fill-opacity:1;fill-rule:evenodd"
       id="ellipse11917"
       cx="-803.06384"
       cy="329.92847"
       rx="2.2139766"
       ry="6.0093651"
       transform="matrix(-0.84100439,-0.5410283,-0.5410283,0.84100439,0,0)" /><ellipse
       style="fill:#81b717;fill-opacity:1;fill-rule:evenodd"
       id="ellipse11919"
       cx="35.428158"
       cy="868.58838"
       rx="2.2139766"
       ry="6.0093651"
       transform="rotate(-32.753667)" /><ellipse
       style="fill:#81b717;fill-opacity:1;fill-rule:evenodd;stroke-width:0.97186"
       id="path11921"
       cx="320.86285"
       cy="508.73544"
       rx="2.9612193"
       ry="5.5279317"
       transform="matrix(0.67853071,0.73457203,-0.35241694,0.93584309,0,0)" /><ellipse
       style="fill:#81b717;fill-opacity:1;fill-rule:evenodd;stroke-width:0.97186"
       id="ellipse11923"
       cx="235.71884"
       cy="574.55365"
       rx="2.9612193"
       ry="5.5279317"
       transform="matrix(-0.67853071,0.73457203,0.35241694,0.9358431,0,0)" /><ellipse
       style="fill:#81b717;fill-opacity:1;fill-rule:evenodd;stroke-width:0.97186"
       id="ellipse11925"
       cx="419.12436"
       cy="440.51947"
       rx="2.9612193"
       ry="5.5279317"
       transform="matrix(-0.31499738,0.94909254,0.70714993,0.70706363,0,0)" /><ellipse
       style="fill:#81b717;fill-opacity:1;fill-rule:evenodd;stroke-width:0.97186"
       id="ellipse11927"
       cx="701.33051"
       cy="63.055725"
       rx="2.9612193"
       ry="5.5279317"
       transform="matrix(0.31499738,0.94909254,-0.70714993,0.70706363,0,0)" /><circle
       style="fill:#f9ff07;fill-opacity:1;fill-rule:evenodd"
       id="path1061"
       cx="680.67493"
       cy="461.29758"
       r="46.126961" /><path
       style="fill:#000000;stroke-width:1.33333"
       id="path1807"
       d="" /><path
       style="fill:#000000;stroke-width:1.33333"
       id="path1805"
       d="" /></g></svg>
