<?xml version="1.0" encoding="UTF-8" standalone="no"?>
<!-- Created with Inkscape (http://www.inkscape.org/) -->

<svg
   width="210mm"
   height="297mm"
   viewBox="0 0 210 297"
   version="1.1"
   id="svg5"
   xml:space="preserve"
   inkscape:version="1.2.1 (9c6d41e410, 2022-07-14)"
   sodipodi:docname="twiitter logo.svg"
   xmlns:inkscape="http://www.inkscape.org/namespaces/inkscape"
   xmlns:sodipodi="http://sodipodi.sourceforge.net/DTD/sodipodi-0.dtd"
   xmlns="http://www.w3.org/2000/svg"
   xmlns:svg="http://www.w3.org/2000/svg"><sodipodi:namedview
     id="namedview7"
     pagecolor="#ffffff"
     bordercolor="#111111"
     borderopacity="1"
     inkscape:showpageshadow="0"
     inkscape:pageopacity="0"
     inkscape:pagecheckerboard="1"
     inkscape:deskcolor="#d1d1d1"
     inkscape:document-units="mm"
     showgrid="false"
     inkscape:zoom="14.96633"
     inkscape:cx="273.07964"
     inkscape:cy="637.43082"
     inkscape:window-width="1366"
     inkscape:window-height="705"
     inkscape:window-x="-8"
     inkscape:window-y="-8"
     inkscape:window-maximized="1"
     inkscape:current-layer="layer1" /><defs
     id="defs2" /><g
     inkscape:label="Layer 1"
     inkscape:groupmode="layer"
     id="layer1"><g
       id="g332"
       style="fill:#0e4f57;fill-opacity:1"><path
         d="m 75.960655,165.40786 h -3.704167 c -0.730514,0 -1.322917,0.5924 -1.322917,1.32291 v 3.70417 c 0,0.73052 0.592403,1.32292 1.322917,1.32292 h 3.704167 c 0.730779,0 1.322916,-0.5924 1.322916,-1.32292 v -3.70417 c 0,-0.73051 -0.592137,-1.32291 -1.322916,-1.32291 z m -0.03678,2.44395 c 0.0553,1.22158 -0.855663,2.58366 -2.468563,2.58366 -0.490537,0 -0.946943,-0.14367 -1.331383,-0.39026 0.460904,0.0542 0.92075,-0.0735 1.285875,-0.35957 -0.380206,-0.007 -0.700881,-0.25823 -0.811213,-0.60325 0.136261,0.0259 0.27014,0.0183 0.392113,-0.0148 -0.417777,-0.0839 -0.705908,-0.46011 -0.696648,-0.86254 0.116946,0.0651 0.25109,0.10425 0.393171,0.10875 -0.386556,-0.2585 -0.496094,-0.76915 -0.268817,-1.15967 0.428361,0.52546 1.068388,0.87127 1.790171,0.90752 -0.126735,-0.54319 0.28575,-1.06627 0.846402,-1.06627 0.249502,0 0.475456,0.1053 0.633677,0.27437 0.197908,-0.0389 0.383911,-0.11112 0.551921,-0.21061 -0.06509,0.20294 -0.202671,0.37306 -0.381794,0.48049 0.175684,-0.0212 0.343165,-0.0677 0.49874,-0.13679 -0.116152,0.17356 -0.263525,0.32649 -0.433652,0.44899 z"
         id="path214"
         style="stroke-width:0.264583;fill:#0e4f57;fill-opacity:1" /></g></g></svg>
